<svg className="svg-piggy-bank" xmlns="http://www.w3.org/2000/svg" x="0px" y="0px" viewBox="0 0 297 297">
  <path
    d="M292.043,134.105c-8.018,0-15.162-5.362-17.373-13.042c-6.615-22.973-22.438-43.7-44.553-58.361
c-5.106-3.387-8.154-9.014-8.154-15.056V27.171c0-1.984-1.083-3.211-1.729-3.765c-0.644-0.554-2.014-1.443-3.977-1.139
c-8.369,1.278-20.086,4.687-28.374,13.668c-3.929,4.259-9.778,6.343-15.625,5.589c-6.216-0.805-12.528-1.214-18.761-1.214
c-68.784,0-124.743,47.544-124.743,105.984c0.002,17.171,6.331,32.956,13.17,47.456c10.823,22.947,32.46,62.532,41.262,78.487
c0.87,1.577,2.531,2.557,4.336,2.557h17.822c2.733,0,4.957-2.224,4.957-4.957v-15.008c0-5.287,2.301-10.294,6.313-13.736
c4.013-3.441,9.309-4.953,14.537-4.147c14.37,2.214,29.448,2.257,43.824,0.13c0.888-0.132,1.778-0.196,2.661-0.196
c4.318,0,8.521,1.541,11.834,4.4c3.983,3.438,6.268,8.429,6.268,13.693v14.863c0,2.733,2.224,4.957,4.957,4.957h18.549
c1.642,0,3.174-0.81,4.097-2.165c7.421-10.9,25.411-37.853,32.135-52.644c4.733-10.414,7.931-18.669,11.022-26.651
c0.602-1.556,1.195-3.086,1.787-4.602c2.728-6.981,9.343-11.492,16.851-11.492h6.907c2.733,0,4.957-2.224,4.957-4.957v-33.219
C297,136.329,294.776,134.105,292.043,134.105z M171.094,85.783h-36.147c-4.235,0-7.667-3.433-7.667-7.667
s3.432-7.667,7.667-7.667h36.147c4.235,0,7.667,3.433,7.667,7.667S175.328,85.783,171.094,85.783z M233.962,132.96
c-1.434,1.425-3.406,2.246-5.421,2.246c-2.027,0-3.998-0.822-5.422-2.246c-1.436-1.434-2.245-3.406-2.245-5.421
c0-2.027,0.81-3.998,2.245-5.422c1.424-1.436,3.395-2.245,5.422-2.245c2.015,0,3.987,0.81,5.421,2.245
c1.425,1.424,2.235,3.395,2.235,5.422C236.197,129.554,235.387,131.526,233.962,132.96z"
    fill="#f783d0"
  />
  <path
    fill="#962dff"
    d="M15.933,61.642c0.879-4.128-1.744-8.195-5.873-9.091c-4.141-0.893-8.22,1.729-9.12,5.866
c-2.71,12.482-0.843,36.954,23.109,46.829c2.012-4.721,4.365-9.3,7.025-13.72C11.909,84.351,15.429,64.09,15.933,61.642z"
  />
</svg>